<svg xmlns="http://www.w3.org/2000/svg" viewBox="0 0 100 100" width="100" height="100">
  <circle cx="50" cy="50" r="50" fill="#17171c"/>
  <circle cx="50" cy="50" r="47" fill="none" stroke="#fff" stroke-width="2.6"/><circle cx="91.0" cy="50.0" r="1.15" fill="#fff"/><circle cx="90.5" cy="56.4" r="1.15" fill="#fff"/><circle cx="89.0" cy="62.7" r="1.15" fill="#fff"/><circle cx="86.5" cy="68.6" r="1.15" fill="#fff"/><circle cx="83.2" cy="74.1" r="1.15" fill="#fff"/><circle cx="79.0" cy="79.0" r="1.15" fill="#fff"/><circle cx="74.1" cy="83.2" r="1.15" fill="#fff"/><circle cx="68.6" cy="86.5" r="1.15" fill="#fff"/><circle cx="62.7" cy="89.0" r="1.15" fill="#fff"/><circle cx="56.4" cy="90.5" r="1.15" fill="#fff"/><circle cx="50.0" cy="91.0" r="1.15" fill="#fff"/><circle cx="43.6" cy="90.5" r="1.15" fill="#fff"/><circle cx="37.3" cy="89.0" r="1.15" fill="#fff"/><circle cx="31.4" cy="86.5" r="1.15" fill="#fff"/><circle cx="25.9" cy="83.2" r="1.15" fill="#fff"/><circle cx="21.0" cy="79.0" r="1.15" fill="#fff"/><circle cx="16.8" cy="74.1" r="1.15" fill="#fff"/><circle cx="13.5" cy="68.6" r="1.15" fill="#fff"/><circle cx="11.0" cy="62.7" r="1.15" fill="#fff"/><circle cx="9.5" cy="56.4" r="1.15" fill="#fff"/><circle cx="9.0" cy="50.0" r="1.15" fill="#fff"/><circle cx="9.5" cy="43.6" r="1.15" fill="#fff"/><circle cx="11.0" cy="37.3" r="1.15" fill="#fff"/><circle cx="13.5" cy="31.4" r="1.15" fill="#fff"/><circle cx="16.8" cy="25.9" r="1.15" fill="#fff"/><circle cx="21.0" cy="21.0" r="1.15" fill="#fff"/><circle cx="25.9" cy="16.8" r="1.15" fill="#fff"/><circle cx="31.4" cy="13.5" r="1.15" fill="#fff"/><circle cx="37.3" cy="11.0" r="1.15" fill="#fff"/><circle cx="43.6" cy="9.5" r="1.15" fill="#fff"/><circle cx="50.0" cy="9.0" r="1.15" fill="#fff"/><circle cx="56.4" cy="9.5" r="1.15" fill="#fff"/><circle cx="62.7" cy="11.0" r="1.15" fill="#fff"/><circle cx="68.6" cy="13.5" r="1.15" fill="#fff"/><circle cx="74.1" cy="16.8" r="1.15" fill="#fff"/><circle cx="79.0" cy="21.0" r="1.15" fill="#fff"/><circle cx="83.2" cy="25.9" r="1.15" fill="#fff"/><circle cx="86.5" cy="31.4" r="1.15" fill="#fff"/><circle cx="89.0" cy="37.3" r="1.15" fill="#fff"/><circle cx="90.5" cy="43.6" r="1.15" fill="#fff"/><circle cx="50" cy="50" r="37" fill="none" stroke="#fff" stroke-width="1.4"/>
  <rect x="47.5" y="20" width="5" height="9" rx="2.5" fill="#fff"/><path d="M28 38 C28 32 38 28 50 28 C62 28 72 32 72 38 C72 43 68 45 63 45 H37 C32 45 28 43 28 38 Z" fill="#fff"/><path d="M35 46 C35 63 42 79 50 82 C58 79 65 63 65 46 Z" fill="#fff"/><path d="M40 34 h20 M37 39 h26 M35 46 H65" fill="none" stroke="#17171c" stroke-width="1.8" stroke-linecap="round" stroke-linejoin="round"/><path d="M50 50 V78" fill="none" stroke="#17171c" stroke-width="1.8" stroke-linecap="round" stroke-linejoin="round"/><circle cx="85.5" cy="50.0" r="1.1" fill="#fff"/><circle cx="83.8" cy="61.0" r="1.1" fill="#fff"/><circle cx="78.7" cy="70.9" r="1.1" fill="#fff"/><circle cx="70.9" cy="78.7" r="1.1" fill="#fff"/><circle cx="61.0" cy="83.8" r="1.1" fill="#fff"/><circle cx="50.0" cy="85.5" r="1.1" fill="#fff"/><circle cx="39.0" cy="83.8" r="1.1" fill="#fff"/><circle cx="29.1" cy="78.7" r="1.1" fill="#fff"/><circle cx="21.3" cy="70.9" r="1.1" fill="#fff"/><circle cx="16.2" cy="61.0" r="1.1" fill="#fff"/><circle cx="14.5" cy="50.0" r="1.1" fill="#fff"/><circle cx="16.2" cy="39.0" r="1.1" fill="#fff"/><circle cx="21.3" cy="29.1" r="1.1" fill="#fff"/><circle cx="29.1" cy="21.3" r="1.1" fill="#fff"/><circle cx="39.0" cy="16.2" r="1.1" fill="#fff"/><circle cx="50.0" cy="14.5" r="1.1" fill="#fff"/><circle cx="61.0" cy="16.2" r="1.1" fill="#fff"/><circle cx="70.9" cy="21.3" r="1.1" fill="#fff"/><circle cx="78.7" cy="29.1" r="1.1" fill="#fff"/><circle cx="83.8" cy="39.0" r="1.1" fill="#fff"/>
</svg>
