<svg xmlns="http://www.w3.org/2000/svg" viewBox="0 0 100 100" width="100" height="100">
  <circle cx="50" cy="50" r="47" fill="none" stroke="currentColor" stroke-width="2.6"/><circle cx="91.0" cy="50.0" r="1.15" fill="currentColor"/><circle cx="90.5" cy="56.4" r="1.15" fill="currentColor"/><circle cx="89.0" cy="62.7" r="1.15" fill="currentColor"/><circle cx="86.5" cy="68.6" r="1.15" fill="currentColor"/><circle cx="83.2" cy="74.1" r="1.15" fill="currentColor"/><circle cx="79.0" cy="79.0" r="1.15" fill="currentColor"/><circle cx="74.1" cy="83.2" r="1.15" fill="currentColor"/><circle cx="68.6" cy="86.5" r="1.15" fill="currentColor"/><circle cx="62.7" cy="89.0" r="1.15" fill="currentColor"/><circle cx="56.4" cy="90.5" r="1.15" fill="currentColor"/><circle cx="50.0" cy="91.0" r="1.15" fill="currentColor"/><circle cx="43.6" cy="90.5" r="1.15" fill="currentColor"/><circle cx="37.3" cy="89.0" r="1.15" fill="currentColor"/><circle cx="31.4" cy="86.5" r="1.15" fill="currentColor"/><circle cx="25.9" cy="83.2" r="1.15" fill="currentColor"/><circle cx="21.0" cy="79.0" r="1.15" fill="currentColor"/><circle cx="16.8" cy="74.1" r="1.15" fill="currentColor"/><circle cx="13.5" cy="68.6" r="1.15" fill="currentColor"/><circle cx="11.0" cy="62.7" r="1.15" fill="currentColor"/><circle cx="9.5" cy="56.4" r="1.15" fill="currentColor"/><circle cx="9.0" cy="50.0" r="1.15" fill="currentColor"/><circle cx="9.5" cy="43.6" r="1.15" fill="currentColor"/><circle cx="11.0" cy="37.3" r="1.15" fill="currentColor"/><circle cx="13.5" cy="31.4" r="1.15" fill="currentColor"/><circle cx="16.8" cy="25.9" r="1.15" fill="currentColor"/><circle cx="21.0" cy="21.0" r="1.15" fill="currentColor"/><circle cx="25.9" cy="16.8" r="1.15" fill="currentColor"/><circle cx="31.4" cy="13.5" r="1.15" fill="currentColor"/><circle cx="37.3" cy="11.0" r="1.15" fill="currentColor"/><circle cx="43.6" cy="9.5" r="1.15" fill="currentColor"/><circle cx="50.0" cy="9.0" r="1.15" fill="currentColor"/><circle cx="56.4" cy="9.5" r="1.15" fill="currentColor"/><circle cx="62.7" cy="11.0" r="1.15" fill="currentColor"/><circle cx="68.6" cy="13.5" r="1.15" fill="currentColor"/><circle cx="74.1" cy="16.8" r="1.15" fill="currentColor"/><circle cx="79.0" cy="21.0" r="1.15" fill="currentColor"/><circle cx="83.2" cy="25.9" r="1.15" fill="currentColor"/><circle cx="86.5" cy="31.4" r="1.15" fill="currentColor"/><circle cx="89.0" cy="37.3" r="1.15" fill="currentColor"/><circle cx="90.5" cy="43.6" r="1.15" fill="currentColor"/><circle cx="50" cy="50" r="37" fill="none" stroke="currentColor" stroke-width="1.4"/>
  <path d="M28 72 C18 56 31 47 32 34 C38 48 45 49 43 36 C42 27 48 21 54 14 C51 34 66 36 70 52 C80 58 78 74 66 82 H34 C32 79 30 76 28 72 Z" fill="currentColor"/><path d="M50 36 C59 49 66 53 66 64 a16 16 0 0 1 -32 0 C34 55 42 53 45 44 C47 55 53 54 55 48 C57 43 54 39 50 36 Z" fill="#fff"/><path d="M38 72 C38 61 43 59 46 50 C47 60 53 60 54 52 C61 59 61 72 50 78 C44 77 40 75 38 72 Z" fill="currentColor"/>
</svg>
