<svg xmlns="http://www.w3.org/2000/svg" viewBox="0 0 100 100" width="100" height="100">
  <circle cx="50" cy="50" r="47" fill="none" stroke="currentColor" stroke-width="2.6"/><circle cx="91.0" cy="50.0" r="1.15" fill="currentColor"/><circle cx="90.5" cy="56.4" r="1.15" fill="currentColor"/><circle cx="89.0" cy="62.7" r="1.15" fill="currentColor"/><circle cx="86.5" cy="68.6" r="1.15" fill="currentColor"/><circle cx="83.2" cy="74.1" r="1.15" fill="currentColor"/><circle cx="79.0" cy="79.0" r="1.15" fill="currentColor"/><circle cx="74.1" cy="83.2" r="1.15" fill="currentColor"/><circle cx="68.6" cy="86.5" r="1.15" fill="currentColor"/><circle cx="62.7" cy="89.0" r="1.15" fill="currentColor"/><circle cx="56.4" cy="90.5" r="1.15" fill="currentColor"/><circle cx="50.0" cy="91.0" r="1.15" fill="currentColor"/><circle cx="43.6" cy="90.5" r="1.15" fill="currentColor"/><circle cx="37.3" cy="89.0" r="1.15" fill="currentColor"/><circle cx="31.4" cy="86.5" r="1.15" fill="currentColor"/><circle cx="25.9" cy="83.2" r="1.15" fill="currentColor"/><circle cx="21.0" cy="79.0" r="1.15" fill="currentColor"/><circle cx="16.8" cy="74.1" r="1.15" fill="currentColor"/><circle cx="13.5" cy="68.6" r="1.15" fill="currentColor"/><circle cx="11.0" cy="62.7" r="1.15" fill="currentColor"/><circle cx="9.5" cy="56.4" r="1.15" fill="currentColor"/><circle cx="9.0" cy="50.0" r="1.15" fill="currentColor"/><circle cx="9.5" cy="43.6" r="1.15" fill="currentColor"/><circle cx="11.0" cy="37.3" r="1.15" fill="currentColor"/><circle cx="13.5" cy="31.4" r="1.15" fill="currentColor"/><circle cx="16.8" cy="25.9" r="1.15" fill="currentColor"/><circle cx="21.0" cy="21.0" r="1.15" fill="currentColor"/><circle cx="25.9" cy="16.8" r="1.15" fill="currentColor"/><circle cx="31.4" cy="13.5" r="1.15" fill="currentColor"/><circle cx="37.3" cy="11.0" r="1.15" fill="currentColor"/><circle cx="43.6" cy="9.5" r="1.15" fill="currentColor"/><circle cx="50.0" cy="9.0" r="1.15" fill="currentColor"/><circle cx="56.4" cy="9.5" r="1.15" fill="currentColor"/><circle cx="62.7" cy="11.0" r="1.15" fill="currentColor"/><circle cx="68.6" cy="13.5" r="1.15" fill="currentColor"/><circle cx="74.1" cy="16.8" r="1.15" fill="currentColor"/><circle cx="79.0" cy="21.0" r="1.15" fill="currentColor"/><circle cx="83.2" cy="25.9" r="1.15" fill="currentColor"/><circle cx="86.5" cy="31.4" r="1.15" fill="currentColor"/><circle cx="89.0" cy="37.3" r="1.15" fill="currentColor"/><circle cx="90.5" cy="43.6" r="1.15" fill="currentColor"/><circle cx="50" cy="50" r="37" fill="none" stroke="currentColor" stroke-width="1.4"/>
  <rect x="26" y="40" width="48" height="34" rx="3" fill="currentColor"/><path d="M26 42 V35 a5 5 0 0 1 5 -5 H69 a5 5 0 0 1 5 5 V42 Z" fill="currentColor"/><line x1="26" y1="42" x2="74" y2="42" fill="none" stroke="#fff" stroke-width="2.6" stroke-linecap="round" stroke-linejoin="round"/><g fill="none" stroke="#fff" stroke-width="1.8" stroke-linecap="round" stroke-linejoin="round"><line x1="35" y1="42" x2="35" y2="74"/><line x1="65" y1="42" x2="65" y2="74"/></g><rect x="45" y="48" width="10" height="13" rx="2" fill="#fff"/><rect x="49" y="53" width="2" height="5" rx="1" fill="currentColor"/><polygon points="64.00,37.00 65.41,40.59 69.00,42.00 65.41,43.41 64.00,47.00 62.59,43.41 59.00,42.00 62.59,40.59" fill="#fff"/>
</svg>
