<svg xmlns="http://www.w3.org/2000/svg" viewBox="0 0 100 100" width="100" height="100">
  <circle cx="50" cy="50" r="50" fill="#17171c"/>
  <circle cx="50" cy="50" r="47" fill="none" stroke="#fff" stroke-width="2.6"/><circle cx="91.0" cy="50.0" r="1.15" fill="#fff"/><circle cx="90.5" cy="56.4" r="1.15" fill="#fff"/><circle cx="89.0" cy="62.7" r="1.15" fill="#fff"/><circle cx="86.5" cy="68.6" r="1.15" fill="#fff"/><circle cx="83.2" cy="74.1" r="1.15" fill="#fff"/><circle cx="79.0" cy="79.0" r="1.15" fill="#fff"/><circle cx="74.1" cy="83.2" r="1.15" fill="#fff"/><circle cx="68.6" cy="86.5" r="1.15" fill="#fff"/><circle cx="62.7" cy="89.0" r="1.15" fill="#fff"/><circle cx="56.4" cy="90.5" r="1.15" fill="#fff"/><circle cx="50.0" cy="91.0" r="1.15" fill="#fff"/><circle cx="43.6" cy="90.5" r="1.15" fill="#fff"/><circle cx="37.3" cy="89.0" r="1.15" fill="#fff"/><circle cx="31.4" cy="86.5" r="1.15" fill="#fff"/><circle cx="25.9" cy="83.2" r="1.15" fill="#fff"/><circle cx="21.0" cy="79.0" r="1.15" fill="#fff"/><circle cx="16.8" cy="74.1" r="1.15" fill="#fff"/><circle cx="13.5" cy="68.6" r="1.15" fill="#fff"/><circle cx="11.0" cy="62.7" r="1.15" fill="#fff"/><circle cx="9.5" cy="56.4" r="1.15" fill="#fff"/><circle cx="9.0" cy="50.0" r="1.15" fill="#fff"/><circle cx="9.5" cy="43.6" r="1.15" fill="#fff"/><circle cx="11.0" cy="37.3" r="1.15" fill="#fff"/><circle cx="13.5" cy="31.4" r="1.15" fill="#fff"/><circle cx="16.8" cy="25.9" r="1.15" fill="#fff"/><circle cx="21.0" cy="21.0" r="1.15" fill="#fff"/><circle cx="25.9" cy="16.8" r="1.15" fill="#fff"/><circle cx="31.4" cy="13.5" r="1.15" fill="#fff"/><circle cx="37.3" cy="11.0" r="1.15" fill="#fff"/><circle cx="43.6" cy="9.5" r="1.15" fill="#fff"/><circle cx="50.0" cy="9.0" r="1.15" fill="#fff"/><circle cx="56.4" cy="9.5" r="1.15" fill="#fff"/><circle cx="62.7" cy="11.0" r="1.15" fill="#fff"/><circle cx="68.6" cy="13.5" r="1.15" fill="#fff"/><circle cx="74.1" cy="16.8" r="1.15" fill="#fff"/><circle cx="79.0" cy="21.0" r="1.15" fill="#fff"/><circle cx="83.2" cy="25.9" r="1.15" fill="#fff"/><circle cx="86.5" cy="31.4" r="1.15" fill="#fff"/><circle cx="89.0" cy="37.3" r="1.15" fill="#fff"/><circle cx="90.5" cy="43.6" r="1.15" fill="#fff"/><circle cx="50" cy="50" r="37" fill="none" stroke="#fff" stroke-width="1.4"/>
  <path d="M22 60 A28 28 0 0 0 78 60" fill="none" stroke="#fff" stroke-width="4"/><line x1="26.0" y1="60.0" x2="22.0" y2="60.0" stroke="#fff" stroke-width="2.2"/><line x1="27.4" y1="51.8" x2="23.7" y2="50.4" stroke="#fff" stroke-width="2.2"/><line x1="31.6" y1="44.6" x2="28.6" y2="42.0" stroke="#fff" stroke-width="2.2"/><line x1="38.0" y1="39.2" x2="36.0" y2="35.8" stroke="#fff" stroke-width="2.2"/><line x1="45.8" y1="36.4" x2="45.1" y2="32.4" stroke="#fff" stroke-width="2.2"/><line x1="54.2" y1="36.4" x2="54.9" y2="32.4" stroke="#fff" stroke-width="2.2"/><line x1="62.0" y1="39.2" x2="64.0" y2="35.8" stroke="#fff" stroke-width="2.2"/><line x1="68.4" y1="44.6" x2="71.4" y2="42.0" stroke="#fff" stroke-width="2.2"/><line x1="72.6" y1="51.8" x2="76.3" y2="50.4" stroke="#fff" stroke-width="2.2"/><line x1="74.0" y1="60.0" x2="78.0" y2="60.0" stroke="#fff" stroke-width="2.2"/><line x1="50" y1="60" x2="68" y2="45" stroke="#fff" stroke-width="4" stroke-linecap="round"/><circle cx="50" cy="60" r="4.5" fill="#fff"/><rect x="33" y="63" width="34" height="14" rx="2.5" fill="#fff"/><path d="M52.1 75.1 A5.5 5.5 0 0 1 47.9 75.1 L49.3 71.7 A1.8 1.8 0 0 0 50.7 71.7 Z" fill="#17171c"/><path d="M44.5 69.3 A5.5 5.5 0 0 1 46.7 65.6 L48.9 68.6 A1.8 1.8 0 0 0 48.2 69.8 Z" fill="#17171c"/><path d="M53.3 65.6 A5.5 5.5 0 0 1 55.5 69.3 L51.8 69.8 A1.8 1.8 0 0 0 51.1 68.6 Z" fill="#17171c"/><circle cx="50" cy="70" r="1.9" fill="#17171c"/><circle cx="85.5" cy="50.0" r="1.1" fill="#fff"/><circle cx="83.8" cy="61.0" r="1.1" fill="#fff"/><circle cx="78.7" cy="70.9" r="1.1" fill="#fff"/><circle cx="70.9" cy="78.7" r="1.1" fill="#fff"/><circle cx="61.0" cy="83.8" r="1.1" fill="#fff"/><circle cx="50.0" cy="85.5" r="1.1" fill="#fff"/><circle cx="39.0" cy="83.8" r="1.1" fill="#fff"/><circle cx="29.1" cy="78.7" r="1.1" fill="#fff"/><circle cx="21.3" cy="70.9" r="1.1" fill="#fff"/><circle cx="16.2" cy="61.0" r="1.1" fill="#fff"/><circle cx="14.5" cy="50.0" r="1.1" fill="#fff"/><circle cx="16.2" cy="39.0" r="1.1" fill="#fff"/><circle cx="21.3" cy="29.1" r="1.1" fill="#fff"/><circle cx="29.1" cy="21.3" r="1.1" fill="#fff"/><circle cx="39.0" cy="16.2" r="1.1" fill="#fff"/><circle cx="50.0" cy="14.5" r="1.1" fill="#fff"/><circle cx="61.0" cy="16.2" r="1.1" fill="#fff"/><circle cx="70.9" cy="21.3" r="1.1" fill="#fff"/><circle cx="78.7" cy="29.1" r="1.1" fill="#fff"/><circle cx="83.8" cy="39.0" r="1.1" fill="#fff"/>
</svg>
