<svg xmlns="http://www.w3.org/2000/svg" viewBox="0 0 100 100" width="100" height="100">
  <circle cx="50" cy="50" r="47" fill="none" stroke="currentColor" stroke-width="2.6"/><circle cx="91.0" cy="50.0" r="1.15" fill="currentColor"/><circle cx="90.5" cy="56.4" r="1.15" fill="currentColor"/><circle cx="89.0" cy="62.7" r="1.15" fill="currentColor"/><circle cx="86.5" cy="68.6" r="1.15" fill="currentColor"/><circle cx="83.2" cy="74.1" r="1.15" fill="currentColor"/><circle cx="79.0" cy="79.0" r="1.15" fill="currentColor"/><circle cx="74.1" cy="83.2" r="1.15" fill="currentColor"/><circle cx="68.6" cy="86.5" r="1.15" fill="currentColor"/><circle cx="62.7" cy="89.0" r="1.15" fill="currentColor"/><circle cx="56.4" cy="90.5" r="1.15" fill="currentColor"/><circle cx="50.0" cy="91.0" r="1.15" fill="currentColor"/><circle cx="43.6" cy="90.5" r="1.15" fill="currentColor"/><circle cx="37.3" cy="89.0" r="1.15" fill="currentColor"/><circle cx="31.4" cy="86.5" r="1.15" fill="currentColor"/><circle cx="25.9" cy="83.2" r="1.15" fill="currentColor"/><circle cx="21.0" cy="79.0" r="1.15" fill="currentColor"/><circle cx="16.8" cy="74.1" r="1.15" fill="currentColor"/><circle cx="13.5" cy="68.6" r="1.15" fill="currentColor"/><circle cx="11.0" cy="62.7" r="1.15" fill="currentColor"/><circle cx="9.5" cy="56.4" r="1.15" fill="currentColor"/><circle cx="9.0" cy="50.0" r="1.15" fill="currentColor"/><circle cx="9.5" cy="43.6" r="1.15" fill="currentColor"/><circle cx="11.0" cy="37.3" r="1.15" fill="currentColor"/><circle cx="13.5" cy="31.4" r="1.15" fill="currentColor"/><circle cx="16.8" cy="25.9" r="1.15" fill="currentColor"/><circle cx="21.0" cy="21.0" r="1.15" fill="currentColor"/><circle cx="25.9" cy="16.8" r="1.15" fill="currentColor"/><circle cx="31.4" cy="13.5" r="1.15" fill="currentColor"/><circle cx="37.3" cy="11.0" r="1.15" fill="currentColor"/><circle cx="43.6" cy="9.5" r="1.15" fill="currentColor"/><circle cx="50.0" cy="9.0" r="1.15" fill="currentColor"/><circle cx="56.4" cy="9.5" r="1.15" fill="currentColor"/><circle cx="62.7" cy="11.0" r="1.15" fill="currentColor"/><circle cx="68.6" cy="13.5" r="1.15" fill="currentColor"/><circle cx="74.1" cy="16.8" r="1.15" fill="currentColor"/><circle cx="79.0" cy="21.0" r="1.15" fill="currentColor"/><circle cx="83.2" cy="25.9" r="1.15" fill="currentColor"/><circle cx="86.5" cy="31.4" r="1.15" fill="currentColor"/><circle cx="89.0" cy="37.3" r="1.15" fill="currentColor"/><circle cx="90.5" cy="43.6" r="1.15" fill="currentColor"/><circle cx="50" cy="50" r="37" fill="none" stroke="currentColor" stroke-width="1.4"/>
  <polygon points="50.00,19.00 54.95,45.05 81.00,50.00 54.95,54.95 50.00,81.00 45.05,54.95 19.00,50.00 45.05,45.05" fill="currentColor"/><polygon points="50.00,34.00 52.83,47.17 66.00,50.00 52.83,52.83 50.00,66.00 47.17,52.83 34.00,50.00 47.17,47.17" fill="none"/><circle cx="50" cy="50" r="3.4" fill="#fff"/>
</svg>
