<svg xmlns="http://www.w3.org/2000/svg" viewBox="0 0 100 100" width="100" height="100">
  <circle cx="50" cy="50" r="50" fill="#17171c"/>
  <circle cx="50" cy="50" r="47" fill="none" stroke="#fff" stroke-width="2.6"/><circle cx="91.0" cy="50.0" r="1.15" fill="#fff"/><circle cx="90.5" cy="56.4" r="1.15" fill="#fff"/><circle cx="89.0" cy="62.7" r="1.15" fill="#fff"/><circle cx="86.5" cy="68.6" r="1.15" fill="#fff"/><circle cx="83.2" cy="74.1" r="1.15" fill="#fff"/><circle cx="79.0" cy="79.0" r="1.15" fill="#fff"/><circle cx="74.1" cy="83.2" r="1.15" fill="#fff"/><circle cx="68.6" cy="86.5" r="1.15" fill="#fff"/><circle cx="62.7" cy="89.0" r="1.15" fill="#fff"/><circle cx="56.4" cy="90.5" r="1.15" fill="#fff"/><circle cx="50.0" cy="91.0" r="1.15" fill="#fff"/><circle cx="43.6" cy="90.5" r="1.15" fill="#fff"/><circle cx="37.3" cy="89.0" r="1.15" fill="#fff"/><circle cx="31.4" cy="86.5" r="1.15" fill="#fff"/><circle cx="25.9" cy="83.2" r="1.15" fill="#fff"/><circle cx="21.0" cy="79.0" r="1.15" fill="#fff"/><circle cx="16.8" cy="74.1" r="1.15" fill="#fff"/><circle cx="13.5" cy="68.6" r="1.15" fill="#fff"/><circle cx="11.0" cy="62.7" r="1.15" fill="#fff"/><circle cx="9.5" cy="56.4" r="1.15" fill="#fff"/><circle cx="9.0" cy="50.0" r="1.15" fill="#fff"/><circle cx="9.5" cy="43.6" r="1.15" fill="#fff"/><circle cx="11.0" cy="37.3" r="1.15" fill="#fff"/><circle cx="13.5" cy="31.4" r="1.15" fill="#fff"/><circle cx="16.8" cy="25.9" r="1.15" fill="#fff"/><circle cx="21.0" cy="21.0" r="1.15" fill="#fff"/><circle cx="25.9" cy="16.8" r="1.15" fill="#fff"/><circle cx="31.4" cy="13.5" r="1.15" fill="#fff"/><circle cx="37.3" cy="11.0" r="1.15" fill="#fff"/><circle cx="43.6" cy="9.5" r="1.15" fill="#fff"/><circle cx="50.0" cy="9.0" r="1.15" fill="#fff"/><circle cx="56.4" cy="9.5" r="1.15" fill="#fff"/><circle cx="62.7" cy="11.0" r="1.15" fill="#fff"/><circle cx="68.6" cy="13.5" r="1.15" fill="#fff"/><circle cx="74.1" cy="16.8" r="1.15" fill="#fff"/><circle cx="79.0" cy="21.0" r="1.15" fill="#fff"/><circle cx="83.2" cy="25.9" r="1.15" fill="#fff"/><circle cx="86.5" cy="31.4" r="1.15" fill="#fff"/><circle cx="89.0" cy="37.3" r="1.15" fill="#fff"/><circle cx="90.5" cy="43.6" r="1.15" fill="#fff"/><circle cx="50" cy="50" r="37" fill="none" stroke="#fff" stroke-width="1.4"/>
  <path d="M24 32 L33 39 C38 28 62 28 67 39 L76 32 C73 45 75 51 70 60 C64 72 56 78 50 80 C44 78 36 72 30 60 C25 51 27 45 24 32 Z" fill="#fff"/><polygon points="36,48 48,52 36,57" fill="#17171c"/><polygon points="64,48 52,52 64,57" fill="#17171c"/><circle cx="41" cy="52.5" r="1.8" fill="#fff"/><circle cx="59" cy="52.5" r="1.8" fill="#fff"/><path d="M34 45 L48 49 M66 45 L52 49" fill="none" stroke="#17171c" stroke-width="2.6" stroke-linecap="round" stroke-linejoin="round"/><path d="M38 64 L44 64 L46 70 L50 64 L54 70 L56 64 L62 64 L58 73 L50 77 L42 73 Z" fill="#17171c"/>
</svg>
