<svg xmlns="http://www.w3.org/2000/svg" viewBox="0 0 100 100" width="100" height="100">
  <circle cx="50" cy="50" r="50" fill="#17171c"/>
  <circle cx="50" cy="50" r="47" fill="none" stroke="#fff" stroke-width="2.6"/><circle cx="91.0" cy="50.0" r="1.15" fill="#fff"/><circle cx="90.5" cy="56.4" r="1.15" fill="#fff"/><circle cx="89.0" cy="62.7" r="1.15" fill="#fff"/><circle cx="86.5" cy="68.6" r="1.15" fill="#fff"/><circle cx="83.2" cy="74.1" r="1.15" fill="#fff"/><circle cx="79.0" cy="79.0" r="1.15" fill="#fff"/><circle cx="74.1" cy="83.2" r="1.15" fill="#fff"/><circle cx="68.6" cy="86.5" r="1.15" fill="#fff"/><circle cx="62.7" cy="89.0" r="1.15" fill="#fff"/><circle cx="56.4" cy="90.5" r="1.15" fill="#fff"/><circle cx="50.0" cy="91.0" r="1.15" fill="#fff"/><circle cx="43.6" cy="90.5" r="1.15" fill="#fff"/><circle cx="37.3" cy="89.0" r="1.15" fill="#fff"/><circle cx="31.4" cy="86.5" r="1.15" fill="#fff"/><circle cx="25.9" cy="83.2" r="1.15" fill="#fff"/><circle cx="21.0" cy="79.0" r="1.15" fill="#fff"/><circle cx="16.8" cy="74.1" r="1.15" fill="#fff"/><circle cx="13.5" cy="68.6" r="1.15" fill="#fff"/><circle cx="11.0" cy="62.7" r="1.15" fill="#fff"/><circle cx="9.5" cy="56.4" r="1.15" fill="#fff"/><circle cx="9.0" cy="50.0" r="1.15" fill="#fff"/><circle cx="9.5" cy="43.6" r="1.15" fill="#fff"/><circle cx="11.0" cy="37.3" r="1.15" fill="#fff"/><circle cx="13.5" cy="31.4" r="1.15" fill="#fff"/><circle cx="16.8" cy="25.9" r="1.15" fill="#fff"/><circle cx="21.0" cy="21.0" r="1.15" fill="#fff"/><circle cx="25.9" cy="16.8" r="1.15" fill="#fff"/><circle cx="31.4" cy="13.5" r="1.15" fill="#fff"/><circle cx="37.3" cy="11.0" r="1.15" fill="#fff"/><circle cx="43.6" cy="9.5" r="1.15" fill="#fff"/><circle cx="50.0" cy="9.0" r="1.15" fill="#fff"/><circle cx="56.4" cy="9.5" r="1.15" fill="#fff"/><circle cx="62.7" cy="11.0" r="1.15" fill="#fff"/><circle cx="68.6" cy="13.5" r="1.15" fill="#fff"/><circle cx="74.1" cy="16.8" r="1.15" fill="#fff"/><circle cx="79.0" cy="21.0" r="1.15" fill="#fff"/><circle cx="83.2" cy="25.9" r="1.15" fill="#fff"/><circle cx="86.5" cy="31.4" r="1.15" fill="#fff"/><circle cx="89.0" cy="37.3" r="1.15" fill="#fff"/><circle cx="90.5" cy="43.6" r="1.15" fill="#fff"/><circle cx="50" cy="50" r="37" fill="none" stroke="#fff" stroke-width="1.4"/>
  <circle cx="50" cy="50" r="27" fill="none" stroke="#fff" stroke-width="4.5"/><circle cx="50" cy="50" r="27" fill="none"/><polygon points="76.0,44.9 76.0,55.1 63.0,50.0" fill="#fff"/><polygon points="75.1,58.6 70.0,67.4 61.3,56.5" fill="#fff"/><polygon points="67.4,70.0 58.6,75.1 56.5,61.3" fill="#fff"/><polygon points="55.1,76.0 44.9,76.0 50.0,63.0" fill="#fff"/><polygon points="41.4,75.1 32.6,70.0 43.5,61.3" fill="#fff"/><polygon points="30.0,67.4 24.9,58.6 38.7,56.5" fill="#fff"/><polygon points="24.0,55.1 24.0,44.9 37.0,50.0" fill="#fff"/><polygon points="24.9,41.4 30.0,32.6 38.7,43.5" fill="#fff"/><polygon points="32.6,30.0 41.4,24.9 43.5,38.7" fill="#fff"/><polygon points="44.9,24.0 55.1,24.0 50.0,37.0" fill="#fff"/><polygon points="58.6,24.9 67.4,30.0 56.5,38.7" fill="#fff"/><polygon points="70.0,32.6 75.1,41.4 61.3,43.5" fill="#fff"/><circle cx="50" cy="50" r="4" fill="#fff"/><circle cx="24" cy="50" r="4" fill="#fff"/><circle cx="76" cy="50" r="4" fill="#fff"/>
</svg>
