<svg xmlns="http://www.w3.org/2000/svg" viewBox="0 0 100 100" width="100" height="100">
  <circle cx="50" cy="50" r="50" fill="#17171c"/>
  <circle cx="50" cy="50" r="47" fill="none" stroke="#fff" stroke-width="2.6"/><circle cx="91.0" cy="50.0" r="1.15" fill="#fff"/><circle cx="90.5" cy="56.4" r="1.15" fill="#fff"/><circle cx="89.0" cy="62.7" r="1.15" fill="#fff"/><circle cx="86.5" cy="68.6" r="1.15" fill="#fff"/><circle cx="83.2" cy="74.1" r="1.15" fill="#fff"/><circle cx="79.0" cy="79.0" r="1.15" fill="#fff"/><circle cx="74.1" cy="83.2" r="1.15" fill="#fff"/><circle cx="68.6" cy="86.5" r="1.15" fill="#fff"/><circle cx="62.7" cy="89.0" r="1.15" fill="#fff"/><circle cx="56.4" cy="90.5" r="1.15" fill="#fff"/><circle cx="50.0" cy="91.0" r="1.15" fill="#fff"/><circle cx="43.6" cy="90.5" r="1.15" fill="#fff"/><circle cx="37.3" cy="89.0" r="1.15" fill="#fff"/><circle cx="31.4" cy="86.5" r="1.15" fill="#fff"/><circle cx="25.9" cy="83.2" r="1.15" fill="#fff"/><circle cx="21.0" cy="79.0" r="1.15" fill="#fff"/><circle cx="16.8" cy="74.1" r="1.15" fill="#fff"/><circle cx="13.5" cy="68.6" r="1.15" fill="#fff"/><circle cx="11.0" cy="62.7" r="1.15" fill="#fff"/><circle cx="9.5" cy="56.4" r="1.15" fill="#fff"/><circle cx="9.0" cy="50.0" r="1.15" fill="#fff"/><circle cx="9.5" cy="43.6" r="1.15" fill="#fff"/><circle cx="11.0" cy="37.3" r="1.15" fill="#fff"/><circle cx="13.5" cy="31.4" r="1.15" fill="#fff"/><circle cx="16.8" cy="25.9" r="1.15" fill="#fff"/><circle cx="21.0" cy="21.0" r="1.15" fill="#fff"/><circle cx="25.9" cy="16.8" r="1.15" fill="#fff"/><circle cx="31.4" cy="13.5" r="1.15" fill="#fff"/><circle cx="37.3" cy="11.0" r="1.15" fill="#fff"/><circle cx="43.6" cy="9.5" r="1.15" fill="#fff"/><circle cx="50.0" cy="9.0" r="1.15" fill="#fff"/><circle cx="56.4" cy="9.5" r="1.15" fill="#fff"/><circle cx="62.7" cy="11.0" r="1.15" fill="#fff"/><circle cx="68.6" cy="13.5" r="1.15" fill="#fff"/><circle cx="74.1" cy="16.8" r="1.15" fill="#fff"/><circle cx="79.0" cy="21.0" r="1.15" fill="#fff"/><circle cx="83.2" cy="25.9" r="1.15" fill="#fff"/><circle cx="86.5" cy="31.4" r="1.15" fill="#fff"/><circle cx="89.0" cy="37.3" r="1.15" fill="#fff"/><circle cx="90.5" cy="43.6" r="1.15" fill="#fff"/><circle cx="50" cy="50" r="37" fill="none" stroke="#fff" stroke-width="1.4"/>
  <polygon points="50.00,22.00 56.47,40.10 75.68,40.66 60.46,52.40 65.87,70.84 50.00,60.00 34.13,70.84 39.54,52.40 24.32,40.66 43.53,40.10" fill="#fff"/><polygon points="50.00,33.00 53.53,44.15 65.22,44.06 55.71,50.85 59.40,61.94 50.00,55.00 40.60,61.94 44.29,50.85 34.78,44.06 46.47,44.15" fill="none"/><circle cx="70" cy="30" r="2.6" fill="#fff"/><circle cx="31" cy="34" r="2" fill="#fff"/><circle cx="72" cy="52" r="1.6" fill="#fff"/><polygon points="27.00,23.40 27.95,26.05 30.60,27.00 27.95,27.95 27.00,30.60 26.05,27.95 23.40,27.00 26.05,26.05" fill="#fff"/><polygon points="73.00,23.40 73.95,26.05 76.60,27.00 73.95,27.95 73.00,30.60 72.05,27.95 69.40,27.00 72.05,26.05" fill="#fff"/><polygon points="27.00,69.40 27.95,72.05 30.60,73.00 27.95,73.95 27.00,76.60 26.05,73.95 23.40,73.00 26.05,72.05" fill="#fff"/><polygon points="73.00,69.40 73.95,72.05 76.60,73.00 73.95,73.95 73.00,76.60 72.05,73.95 69.40,73.00 72.05,72.05" fill="#fff"/>
</svg>
